<svg width="544" height="12" viewBox="0 0 544 12" fill="none" xmlns="http://www.w3.org/2000/svg">
  <g transform="rotate(180 272 6)">
    <path d="M0 0H15.77C15.77 5.88 22.12 10.65 29.96 10.65C37.8 10.65 44.15 5.88 44.15 0H56.77C56.77 5.88 63.12 10.65 70.96 10.65C78.79 10.65 85.15 5.88 85.15 0H97.76C97.76 5.88 104.12 10.65 111.95 10.65C119.79 10.65 126.15 5.88 126.15 0H138.76C138.76 5.88 145.11 10.65 152.95 10.65C160.79 10.65 167.14 5.88 167.14 0H179.76C179.76 5.88 186.11 10.65 193.95 10.65C201.79 10.65 208.14 5.88 208.14 0H220.75C220.75 5.88 227.11 10.65 234.95 10.65C242.78 10.65 249.14 5.88 249.14 0H261.75C261.75 5.88 268.11 10.65 275.94 10.65C283.78 10.65 290.13 5.88 290.13 0H302.75C302.75 5.88 309.1 10.65 316.94 10.65C324.78 10.65 331.13 5.88 331.13 0H343.75C343.75 5.88 350.1 10.65 357.94 10.65C365.77 10.65 372.13 5.88 372.13 0H384.74C384.74 5.88 391.1 10.65 398.93 10.65C406.77 10.65 413.13 5.88 413.13 0H425.74C425.74 5.88 432.09 10.65 439.93 10.65C447.77 10.65 454.12 5.88 454.12 0H466.74C466.74 5.88 473.09 10.65 480.93 10.65C488.77 10.65 495.12 5.88 495.12 0H507.73C507.73 5.88 514.09 10.65 521.93 10.65C529.76 10.65 536.12 5.88 536.12 0H544V12H0V0Z" fill="#232839"/>
  </g>
</svg>
